# WaveFront *.obj file (generated by Autodesk ATF)

mtllib HexPath.mtl

g Srf2

v -1.000000 0.000000 -0.500000
v -1.000000 0.000000 0.500000
v -0.933013 0.000000 -0.616025
v -0.933013 0.000000 0.616025
v -0.866025 0.000000 -0.500000
v -0.866025 0.000000 0.500000
v -0.066987 0.000000 -1.116025
v -0.066987 0.000000 1.116025
v 0.000000 0.000000 -1.000000
v 0.000000 0.000000 1.000000
v 0.066987 0.000000 -1.116025
v 0.066987 0.000000 1.116025
v 0.866025 0.000000 -0.500000
v 0.866025 0.000000 0.500000
v 0.933013 0.000000 -0.616025
v 0.933013 0.000000 0.616025
v 1.000000 0.000000 -0.500000
v 1.000000 0.000000 0.500000
vt 0.086603 -0.050000 0.000000
vt 0.100000 -0.050000 0.000000
vt 0.100000 0.050000 0.000000
vt 0.086603 0.050000 0.000000
vt 0.093301 0.061603 0.000000
vt 0.006699 0.111603 0.000000
vt 0.000000 0.100000 0.000000
vt -0.006699 0.111603 0.000000
vt -0.093301 0.061603 0.000000
vt -0.086603 0.050000 0.000000
vt -0.100000 0.050000 0.000000
vt -0.100000 -0.050000 0.000000
vt -0.086603 -0.050000 0.000000
vt -0.093301 -0.061603 0.000000
vt -0.006699 -0.111603 0.000000
vt 0.000000 -0.100000 0.000000
vt 0.006699 -0.111603 0.000000
vt 0.093301 -0.061603 0.000000
vn 0.000000 0.100000 0.000000
vn 0.000000 0.100000 0.000000
vn 0.000000 0.100000 0.000000
vn 0.000000 0.100000 0.000000
vn 0.000000 0.100000 0.000000
vn 0.000000 0.100000 0.000000
vn 0.000000 0.100000 0.000000
vn 0.000000 0.100000 0.000000
vn 0.000000 0.100000 0.000000
vn 0.000000 0.100000 0.000000
vn 0.000000 0.100000 0.000000
vn 0.000000 0.100000 0.000000
vn 0.000000 0.100000 0.000000
vn 0.000000 0.100000 0.000000
vn 0.000000 0.100000 0.000000
vn 0.000000 0.100000 0.000000
vn 0.000000 0.100000 0.000000
vn 0.000000 0.100000 0.000000
usemtl 191,191,191
f 12/2/2 14/4/4 10/1/1
f 10/1/1 14/4/4 13/7/7
f 10/1/1 13/7/7 6/16/16
f 6/16/16 13/7/7 9/10/10
f 6/16/16 9/10/10 5/13/13
f 5/13/13 9/10/10 7/11/11
f 5/13/13 7/11/11 3/12/12
f 12/2/2 16/3/3 14/4/4
f 18/5/5 17/6/6 14/4/4
f 14/4/4 17/6/6 13/7/7
f 13/7/7 15/8/8 9/10/10
f 9/10/10 15/8/8 11/9/9
f 1/14/14 2/15/15 5/13/13
f 5/13/13 2/15/15 6/16/16
f 6/16/16 4/17/17 10/1/1
f 10/1/1 4/17/17 8/18/18

# 18 vertices
# 18 texture params
# 18 normals
# 16 facets

# 1 groups
